<svg width="187" height="60" viewBox="0 0 187 60" fill="none" xmlns="http://www.w3.org/2000/svg">
<path d="M169.5 15.8333V14.1667C169.5 13.7246 169.676 13.3007 169.988 12.9882C170.301 12.6756 170.725 12.5 171.167 12.5H172.833" stroke="#FE9A00" stroke-width="2" stroke-linecap="round" stroke-linejoin="round"/>
<path d="M181.167 12.5H182.833C183.275 12.5 183.699 12.6756 184.012 12.9882C184.324 13.3007 184.5 13.7246 184.5 14.1667V15.8333" stroke="#FE9A00" stroke-width="2" stroke-linecap="round" stroke-linejoin="round"/>
<path d="M184.5 24.1667V25.8334C184.5 26.2754 184.324 26.6994 184.012 27.0119C183.699 27.3245 183.275 27.5001 182.833 27.5001H181.167" stroke="#FE9A00" stroke-width="2" stroke-linecap="round" stroke-linejoin="round"/>
<path d="M172.833 27.5001H171.167C170.725 27.5001 170.301 27.3245 169.988 27.0119C169.676 26.6994 169.5 26.2754 169.5 25.8334V24.1667" stroke="#FE9A00" stroke-width="2" stroke-linecap="round" stroke-linejoin="round"/>
<path d="M177 22.5C178.381 22.5 179.5 21.3807 179.5 20C179.5 18.6193 178.381 17.5 177 17.5C175.619 17.5 174.5 18.6193 174.5 20C174.5 21.3807 175.619 22.5 177 22.5Z" stroke="#FE9A00" stroke-width="2" stroke-linecap="round" stroke-linejoin="round"/>
<path d="M180.333 23.3333L178.75 21.75" stroke="#FE9A00" stroke-width="2" stroke-linecap="round" stroke-linejoin="round"/>
<path d="M16.543 19.6914C16.543 20.3424 16.3021 20.9023 15.8203 21.3711C15.3385 21.8398 14.7721 22.0742 14.1211 22.0742C13.457 22.0742 12.8776 21.8398 12.3828 21.3711C11.901 20.9023 11.6602 20.3424 11.6602 19.6914C11.6602 19.0143 11.8945 18.4349 12.3633 17.9531C12.8451 17.4714 13.431 17.2305 14.1211 17.2305C14.7852 17.2305 15.3516 17.4714 15.8203 17.9531C16.3021 18.4349 16.543 19.0143 16.543 19.6914ZM24.4922 45.4336L17.6953 45.8633L16.6406 30.8828L9.70703 31.4883L10.2734 46.9961L2.75391 45.8047L4.23828 12.7578L8.61328 12.3086L9.375 23.9688L19.2969 24.418L18.9844 12.5625L24.1211 12.6602L23.125 23.0898C22.9557 24.8346 22.832 26.1432 22.7539 27.0156C22.6758 27.875 22.6367 28.3047 22.6367 28.3047C22.6367 28.7604 22.6497 29.2292 22.6758 29.7109C22.7148 30.1797 22.7734 30.668 22.8516 31.1758C22.9818 32.0482 23.0729 32.7253 23.125 33.207C23.1901 33.6758 23.2292 33.9492 23.2422 34.0273L24.4922 45.4336ZM19.5508 27.7383L19.4531 26.4492L9.47266 25.7656L9.57031 28.8516L19.5508 27.7383ZM37.0898 23.4609L36.6016 24.6523L34.9023 23.7734C34.7201 24.0078 34.5182 24.1966 34.2969 24.3398C34.0755 24.4831 33.8281 24.5872 33.5547 24.6523L33.9453 26.2539L32.6172 26.4492L32.2852 24.7695C32.0768 24.7305 31.8685 24.6589 31.6602 24.5547C31.4648 24.4375 31.276 24.3073 31.0938 24.1641L29.8047 25.3555L28.9062 24.3203L30.4102 23.2266C30.2799 22.9792 30.2018 22.7188 30.1758 22.4453C30.1628 22.1719 30.1888 21.8789 30.2539 21.5664L28.5156 20.4727L29.1602 19.418L30.7617 20.5117C30.918 20.3164 31.0938 20.1536 31.2891 20.0234C31.4974 19.8802 31.7318 19.7695 31.9922 19.6914L31.6602 17.3867H32.9102L32.9883 19.5352C33.2747 19.5742 33.5352 19.6393 33.7695 19.7305C34.0039 19.8216 34.2253 19.9388 34.4336 20.082L35.8008 18.9883L36.6992 19.8867L35.1367 20.9414C35.2409 21.0846 35.3125 21.306 35.3516 21.6055C35.3906 21.9049 35.4036 22.2826 35.3906 22.7383L37.0898 23.4609ZM36.4258 48.2461L28.2031 47.1914L31.25 28.168H34.9023L36.4258 48.2461ZM34.1016 38.168C34.1016 37.7122 33.9844 37.3672 33.75 37.1328C33.5286 36.8984 33.1836 36.7812 32.7148 36.7812C32.2331 36.7812 31.875 36.8984 31.6406 37.1328C31.4062 37.3672 31.2891 37.7122 31.2891 38.168C31.2891 38.6367 31.4062 38.9883 31.6406 39.2227C31.875 39.457 32.2331 39.5742 32.7148 39.5742C33.1836 39.5742 33.5286 39.457 33.75 39.2227C33.9844 38.9883 34.1016 38.6367 34.1016 38.168ZM34.1016 43.4609C34.1016 42.9661 33.9258 42.543 33.5742 42.1914C33.2227 41.8398 32.793 41.6641 32.2852 41.6641C31.8034 41.6641 31.3867 41.8398 31.0352 42.1914C30.6836 42.543 30.5078 42.9661 30.5078 43.4609C30.5078 43.9557 30.6836 44.3789 31.0352 44.7305C31.3867 45.069 31.8034 45.2383 32.2852 45.2383C32.793 45.2383 33.2227 45.069 33.5742 44.7305C33.9258 44.3789 34.1016 43.9557 34.1016 43.4609ZM64.7266 13.5L64.3164 17.0938L59.043 17.2891C59.0299 17.2891 59.0234 17.6406 59.0234 18.3438C59.0365 19.0469 59.043 20.0885 59.043 21.4688L61.7773 21.6445L61.4844 24.5547L58.9453 24.2617C58.8802 25.2253 58.8151 26.0781 58.75 26.8203C58.6849 27.5495 58.6198 28.1745 58.5547 28.6953H61.0352L60.6445 31.8789L58.125 31.6836C57.3047 36.6706 56.0417 40.4076 54.3359 42.8945C52.6302 45.3685 50.4818 46.6055 47.8906 46.6055C46.6536 46.6055 45.5339 46.319 44.5312 45.7461C43.5417 45.1732 42.6562 44.3073 41.875 43.1484C41.1979 42.1458 40.6901 41.0716 40.3516 39.9258C40.026 38.7669 39.8633 37.5299 39.8633 36.2148C39.8633 35.3424 39.9479 34.4961 40.1172 33.6758C40.2865 32.8424 40.5339 32.0352 40.8594 31.2539L43.3398 31.0586C43.2357 31.7357 43.1576 32.4193 43.1055 33.1094C43.0534 33.7865 43.0273 34.4701 43.0273 35.1602C43.0273 36.1758 43.0794 37.1328 43.1836 38.0312C43.2878 38.9297 43.4375 39.776 43.6328 40.5703C43.6849 39.138 43.8477 37.8099 44.1211 36.5859C44.3945 35.362 44.7852 34.2357 45.293 33.207L47.4219 33.4414C47.1484 34.1055 46.9401 34.8216 46.7969 35.5898C46.6536 36.3451 46.582 37.1523 46.582 38.0117C46.582 39.7174 46.7839 40.9935 47.1875 41.8398C47.6042 42.6862 48.2292 43.1094 49.0625 43.1094C49.9219 43.1094 50.6576 42.3932 51.2695 40.9609C51.8815 39.5286 52.3763 37.3802 52.7539 34.5156C52.9753 32.862 53.1315 31.1497 53.2227 29.3789C53.3268 27.6081 53.3789 25.7917 53.3789 23.9297C53.3789 22.7318 53.3594 21.5794 53.3203 20.4727C53.2943 19.3529 53.2422 18.2917 53.1641 17.2891C51.8359 17.224 50.6576 17.0742 49.6289 16.8398C48.6003 16.6055 47.7409 16.2799 47.0508 15.8633C46.1784 15.3424 45.4622 14.6523 44.9023 13.793C44.3424 12.9336 43.9518 11.9049 43.7305 10.707L45.1367 10.4141C45.5273 11.4688 46.4844 12.263 48.0078 12.7969C49.5443 13.3177 51.6602 13.5716 54.3555 13.5586L64.7266 13.5ZM87.5977 35.5312L85.1562 36.1953C85.1953 36.4427 85.2279 36.7096 85.2539 36.9961C85.2799 37.2695 85.293 37.5625 85.293 37.875C85.293 38.3438 85.2604 38.806 85.1953 39.2617C85.1302 39.7174 85.0326 40.1732 84.9023 40.6289L86.8555 41.5273L85.8594 43.2461L84.3164 42.1523C83.8216 43.207 83.1836 44.099 82.4023 44.8281C81.6211 45.5573 80.6966 46.1367 79.6289 46.5664L80.1758 48.8906L78.3789 49.3398L78.0273 47.0547C77.6367 47.1198 77.2917 47.1654 76.9922 47.1914C76.7057 47.2305 76.4583 47.25 76.25 47.25C75.4688 47.25 74.7005 47.1523 73.9453 46.957C73.2031 46.7617 72.487 46.4557 71.7969 46.0391L70.3516 48.2852L68.8086 47.3867L70.4492 45.043C69.9284 44.6133 69.4661 44.1315 69.0625 43.5977C68.6719 43.0638 68.3398 42.4844 68.0664 41.8594L65.625 42.6211L65.2734 40.9609L67.5 40.4727C67.3828 39.9909 67.2982 39.5286 67.2461 39.0859C67.194 38.6432 67.168 38.2396 67.168 37.875C67.168 37.4714 67.1875 37.0807 67.2266 36.7031C67.2786 36.3125 67.3568 35.9414 67.4609 35.5898L65.2734 34.8867L65.7227 33.207L67.9688 34.1445C68.2812 33.3503 68.6849 32.6276 69.1797 31.9766C69.6875 31.3255 70.2799 30.7526 70.957 30.2578L69.6484 28.207L71.1523 27.1719L72.4414 29.3594C73.0404 29.0729 73.6523 28.8581 74.2773 28.7148C74.9154 28.5716 75.5729 28.5 76.25 28.5C76.9271 28.5 77.5651 28.5716 78.1641 28.7148C78.776 28.8451 79.362 29.0404 79.9219 29.3008L80.957 27.4453L82.4805 28.3047L81.4258 30.1992C82.194 30.7591 82.8516 31.4036 83.3984 32.1328C83.9453 32.862 84.401 33.6823 84.7656 34.5938L87.1484 33.5391L87.5977 35.5312ZM79.8242 37.875C79.8242 37.0547 79.7461 36.2995 79.5898 35.6094C79.4336 34.9193 79.1797 34.2878 78.8281 33.7148C78.4115 33.0247 77.9167 32.5104 77.3438 32.1719C76.7708 31.8203 76.1003 31.6445 75.332 31.6445C74.5898 31.6445 73.9258 31.8203 73.3398 32.1719C72.7539 32.5104 72.2591 33.0312 71.8555 33.7344C71.5169 34.3073 71.263 34.9453 71.0938 35.6484C70.9375 36.3385 70.8594 37.0807 70.8594 37.875C70.8594 38.7214 70.9375 39.4961 71.0938 40.1992C71.263 40.8893 71.5104 41.5143 71.8359 42.0742C72.2396 42.7773 72.7344 43.2982 73.3203 43.6367C73.9062 43.9753 74.5768 44.1445 75.332 44.1445C76.1133 44.1445 76.7969 43.9753 77.3828 43.6367C77.9688 43.2982 78.457 42.7773 78.8477 42.0742C79.1602 41.5143 79.401 40.8893 79.5703 40.1992C79.7396 39.4961 79.8242 38.7214 79.8242 37.875ZM111.348 37.4844C111.348 38.8255 111.152 40.0495 110.762 41.1562C110.371 42.25 109.792 43.2266 109.023 44.0859C108.229 44.9714 107.292 45.6354 106.211 46.0781C105.143 46.5339 103.945 46.7617 102.617 46.7617C101.602 46.7617 100.684 46.599 99.8633 46.2734C99.056 45.9609 98.3529 45.4792 97.7539 44.8281C97.168 44.1901 96.7253 43.4674 96.4258 42.6602C96.1393 41.8398 95.9961 40.9089 95.9961 39.8672C95.9961 39.0599 96.1198 38.3112 96.3672 37.6211C96.6146 36.918 96.9792 36.2734 97.4609 35.6875C97.9818 35.0625 98.5742 34.6003 99.2383 34.3008C99.9023 33.9883 100.632 33.832 101.426 33.832C102.611 33.832 103.62 34.1771 104.453 34.8672C105.286 35.5443 105.703 36.4622 105.703 37.6211C105.703 38.0638 105.638 38.4674 105.508 38.832C105.378 39.1836 105.195 39.5091 104.961 39.8086C104.701 40.1341 104.395 40.375 104.043 40.5312C103.691 40.6875 103.301 40.7656 102.871 40.7656C102.233 40.7656 101.738 40.6224 101.387 40.3359C101.035 40.0365 100.827 39.5938 100.762 39.0078C100.879 39.112 101.009 39.1901 101.152 39.2422C101.296 39.2812 101.458 39.3008 101.641 39.3008C102.096 39.3008 102.435 39.1901 102.656 38.9688C102.878 38.7344 102.988 38.3828 102.988 37.9141C102.988 37.4453 102.845 37.0938 102.559 36.8594C102.285 36.612 101.875 36.4883 101.328 36.4883C100.82 36.4883 100.365 36.5924 99.9609 36.8008C99.5703 36.9961 99.2318 37.2956 98.9453 37.6992C98.6979 38.0508 98.5091 38.4544 98.3789 38.9102C98.2487 39.3529 98.1836 39.8411 98.1836 40.375C98.1836 41.5599 98.6198 42.5169 99.4922 43.2461C100.378 43.9753 101.419 44.3398 102.617 44.3398C103.398 44.3398 104.102 44.1771 104.727 43.8516C105.352 43.513 105.898 43.0117 106.367 42.3477C106.797 41.7357 107.116 41.0846 107.324 40.3945C107.546 39.6914 107.656 38.9297 107.656 38.1094C107.656 37.1589 107.52 36.293 107.246 35.5117C106.986 34.7305 106.589 34.0339 106.055 33.4219C105.495 32.7839 104.837 32.3021 104.082 31.9766C103.327 31.651 102.474 31.4883 101.523 31.4883C100.69 31.4883 99.9154 31.6576 99.1992 31.9961C98.4961 32.3216 97.8451 32.8099 97.2461 33.4609C96.6862 34.0599 96.237 34.7305 95.8984 35.4727C95.5599 36.2018 95.3385 36.9831 95.2344 37.8164L94.1406 46.2344L91.3477 46.8594L91.5625 24.0664L93.9062 23.7734L93.9453 22.4648L91.5234 22.5625V20.9805L94.0039 20.6875L93.9062 19.125L91.5234 19.418L91.4453 18.0312L94.0039 17.6016L94.1016 16L91.4453 16.4492V14.2812L99.9414 12.7578L96.2891 32.4453C96.9401 31.0651 97.9232 29.9453 99.2383 29.0859C100.553 28.2266 101.966 27.7969 103.477 27.7969C104.753 27.7969 105.885 28.0508 106.875 28.5586C107.878 29.0534 108.737 29.8021 109.453 30.8047C110.091 31.7031 110.566 32.7122 110.879 33.832C111.191 34.9388 111.348 36.1562 111.348 37.4844ZM143.672 45.0039L140.215 45.8047L137.871 38.6758L123.867 38.4805L120.371 47.9922L112.852 42.8164L127.559 12.6602L132.988 12.1914L143.672 45.0039ZM134.785 29.3594L131.113 16.2344L126.074 31.3516L134.785 29.3594ZM136.719 35.2383L135.586 31.8398L125.078 34.4375L124.453 36.0195L136.719 35.2383ZM122.266 33.1484L121.562 32.25C120.625 33.8125 119.792 35.4596 119.062 37.1914C118.333 38.9232 117.708 40.7461 117.188 42.6602L118.984 43.4219C119.245 41.638 119.648 39.8932 120.195 38.1875C120.755 36.4688 121.445 34.7891 122.266 33.1484ZM167.754 31.4492C167.754 31.918 167.637 32.2695 167.402 32.5039C167.181 32.7253 166.836 32.8359 166.367 32.8359C165.911 32.8359 165.566 32.7253 165.332 32.5039C165.098 32.2695 164.98 31.918 164.98 31.4492C164.98 30.9935 165.098 30.6484 165.332 30.4141C165.566 30.1797 165.911 30.0625 166.367 30.0625C166.836 30.0625 167.181 30.1797 167.402 30.4141C167.637 30.6484 167.754 30.9935 167.754 31.4492ZM163.418 36.1172C163.418 36.5729 163.307 36.918 163.086 37.1523C162.865 37.3737 162.513 37.4844 162.031 37.4844C161.562 37.4844 161.211 37.3737 160.977 37.1523C160.742 36.918 160.625 36.5729 160.625 36.1172C160.625 35.6615 160.742 35.3164 160.977 35.082C161.211 34.8477 161.562 34.7305 162.031 34.7305C162.513 34.7305 162.865 34.8477 163.086 35.082C163.307 35.3164 163.418 35.6615 163.418 36.1172ZM164.863 28.168L149.863 45.1406L163.516 44.3398L163.184 48.4805L145.449 47.6016L154.492 31L145.84 31.4883L147.227 27.2695L164.863 28.168ZM159.102 40.7656C159.102 41.2344 158.984 41.5859 158.75 41.8203C158.529 42.0417 158.184 42.1523 157.715 42.1523C157.246 42.1523 156.888 42.0417 156.641 41.8203C156.406 41.5859 156.289 41.2344 156.289 40.7656C156.289 40.3099 156.406 39.9648 156.641 39.7305C156.888 39.4961 157.246 39.3789 157.715 39.3789C158.184 39.3789 158.529 39.4961 158.75 39.7305C158.984 39.9648 159.102 40.3099 159.102 40.7656ZM158.145 29.5938L156.543 28.9688C156.283 30.6094 155.905 32.1979 155.41 33.7344C154.915 35.2708 154.303 36.7682 153.574 38.2266L154.16 39.0078C155.007 37.6797 155.762 36.2279 156.426 34.6523C157.09 33.0768 157.663 31.3906 158.145 29.5938Z" fill="#FE9A00"/>
</svg>
